<?xml version="1.0" standalone="no"?><!DOCTYPE svg PUBLIC "-//W3C//DTD SVG 1.1//EN" "http://www.w3.org/Graphics/SVG/1.1/DTD/svg11.dtd"><svg t="1683706749108" class="icon" viewBox="0 0 1024 1024" version="1.1" xmlns="http://www.w3.org/2000/svg" p-id="2171" xmlns:xlink="http://www.w3.org/1999/xlink" width="200" height="200"><path d="M469 11.4c27.8-10 58.2-10 86.2 0l384 137.2c50.8 18.2 84.8 66.4 84.8 120.6v485.6c0 54-34 102.4-85 120.6l-384 137.2c-27.8 10-58.2 10-86.2 0l-384-137.2C34 857.2 0 809 0 754.8V269.2c0-54 34-102.4 85-120.6l384-137.2zM512 132L164.6 256 512 380l347.4-124L512 132z m64 737.2l320-114.2v-376l-320 114.2v376z" p-id="2172"></path></svg>